<svg width="700" height="150" viewBox="0 0 700 150" fill="none" xmlns="http://www.w3.org/2000/svg">
<rect width="700" height="150" fill="#F5F5F5"/>
<rect width="700" height="150" fill="url(#paint0_linear_0_1)"/>
<g filter="url(#filter0_d_0_1)">
<path d="M208.016 89.48C205.216 89.48 202.789 88.9733 200.736 87.96C198.683 86.9467 197.109 85.52 196.016 83.68C194.923 81.84 194.376 79.72 194.376 77.32C194.376 74.1467 195.096 71.2933 196.536 68.76C198.003 66.2 200.043 64.1867 202.656 62.72C205.296 61.2533 208.309 60.52 211.696 60.52C214.496 60.52 216.923 61.0267 218.976 62.04C221.029 63.0533 222.603 64.48 223.696 66.32C224.789 68.16 225.336 70.28 225.336 72.68C225.336 75.8533 224.603 78.72 223.136 81.28C221.696 83.8133 219.656 85.8133 217.016 87.28C214.403 88.7467 211.403 89.48 208.016 89.48ZM208.576 83.96C210.629 83.96 212.429 83.4667 213.976 82.48C215.523 81.4933 216.709 80.1733 217.536 78.52C218.363 76.8667 218.776 75.04 218.776 73.04C218.776 70.9067 218.109 69.2133 216.776 67.96C215.443 66.68 213.563 66.04 211.136 66.04C209.083 66.04 207.283 66.5333 205.736 67.52C204.189 68.5067 203.003 69.8267 202.176 71.48C201.349 73.1333 200.936 74.96 200.936 76.96C200.936 79.0933 201.603 80.8 202.936 82.08C204.269 83.3333 206.149 83.96 208.576 83.96ZM239.486 89.32C237.619 89.32 235.846 89.12 234.166 88.72C232.513 88.2933 231.219 87.7467 230.286 87.08L232.686 82.56C233.619 83.1733 234.753 83.6667 236.086 84.04C237.446 84.4133 238.806 84.6 240.166 84.6C241.579 84.6 242.633 84.4267 243.326 84.08C244.019 83.7067 244.366 83.1867 244.366 82.52C244.366 81.9867 244.059 81.6 243.446 81.36C242.833 81.12 241.846 80.8667 240.486 80.6C238.939 80.3067 237.659 79.9867 236.646 79.64C235.659 79.2933 234.793 78.7333 234.046 77.96C233.326 77.16 232.966 76.08 232.966 74.72C232.966 72.3467 233.953 70.4933 235.926 69.16C237.926 67.8267 240.539 67.16 243.766 67.16C245.259 67.16 246.713 67.32 248.126 67.64C249.539 67.96 250.739 68.4 251.726 68.96L249.486 73.52C247.726 72.4267 245.606 71.88 243.126 71.88C241.766 71.88 240.726 72.08 240.006 72.48C239.313 72.88 238.966 73.3867 238.966 74C238.966 74.56 239.273 74.9733 239.886 75.24C240.499 75.48 241.526 75.7467 242.966 76.04C244.486 76.3333 245.726 76.6533 246.686 77C247.673 77.32 248.526 77.8667 249.246 78.64C249.966 79.4133 250.326 80.4667 250.326 81.8C250.326 84.2 249.313 86.0533 247.286 87.36C245.286 88.6667 242.686 89.32 239.486 89.32ZM273.736 76.84L281.136 89H273.896L268.776 80.64L264.976 83.8L263.936 89H257.696L263.616 59.32H269.856L266.536 75.92L276.856 67.48H284.976L273.736 76.84ZM313.46 67.48L309.18 89H303.26L303.66 86.88C301.873 88.5067 299.673 89.32 297.06 89.32C295.38 89.32 293.833 88.9333 292.42 88.16C291.006 87.3867 289.873 86.28 289.02 84.84C288.193 83.3733 287.78 81.6533 287.78 79.68C287.78 77.3067 288.3 75.1733 289.34 73.28C290.406 71.36 291.846 69.8667 293.66 68.8C295.473 67.7067 297.473 67.16 299.66 67.16C302.966 67.16 305.3 68.24 306.66 70.4L307.22 67.48H313.46ZM298.98 84.16C300.206 84.16 301.3 83.8667 302.26 83.28C303.22 82.6667 303.966 81.8267 304.5 80.76C305.033 79.6933 305.3 78.4667 305.3 77.08C305.3 75.6133 304.86 74.4533 303.98 73.6C303.126 72.7467 301.926 72.32 300.38 72.32C299.153 72.32 298.06 72.6267 297.1 73.24C296.14 73.8267 295.393 74.6533 294.86 75.72C294.326 76.7867 294.06 78.0133 294.06 79.4C294.06 80.8667 294.486 82.0267 295.34 82.88C296.22 83.7333 297.433 84.16 298.98 84.16ZM329.437 70.04C330.37 69.0267 331.49 68.2933 332.797 67.84C334.13 67.3867 335.69 67.16 337.477 67.16L336.357 72.92C335.61 72.8667 335.13 72.84 334.917 72.84C333.024 72.84 331.504 73.3067 330.357 74.24C329.237 75.1733 328.477 76.6267 328.077 78.6L325.997 89H319.757L324.037 67.48H329.957L329.437 70.04ZM366.365 83.12H361.765L360.605 89H354.285L355.485 83.12H340.405L341.245 78.76L357.725 61H364.805L349.445 77.84H356.805L357.845 72.6H363.885L362.845 77.84H367.445L366.365 83.12ZM384.463 89.48C381.343 89.48 378.876 88.5467 377.063 86.68C375.25 84.7867 374.343 82.1867 374.343 78.88C374.343 75.52 374.956 72.44 376.183 69.64C377.436 66.84 379.17 64.6267 381.383 63C383.596 61.3467 386.116 60.52 388.943 60.52C392.063 60.52 394.53 61.4667 396.343 63.36C398.156 65.2267 399.063 67.8133 399.063 71.12C399.063 74.48 398.436 77.56 397.183 80.36C395.956 83.16 394.236 85.3867 392.023 87.04C389.81 88.6667 387.29 89.48 384.463 89.48ZM385.063 84C386.61 84 387.943 83.3333 389.063 82C390.21 80.6667 391.076 79.0133 391.663 77.04C392.25 75.04 392.543 73.12 392.543 71.28C392.543 69.4933 392.17 68.1733 391.423 67.32C390.703 66.44 389.676 66 388.343 66C386.796 66 385.45 66.6667 384.303 68C383.183 69.3333 382.33 71 381.743 73C381.156 74.9733 380.863 76.88 380.863 78.72C380.863 80.5067 381.223 81.84 381.943 82.72C382.69 83.5733 383.73 84 385.063 84ZM413.818 83.72H425.578L424.538 89H403.338L404.178 84.8L416.938 74.8C418.485 73.5467 419.551 72.4933 420.138 71.64C420.751 70.7867 421.058 69.8933 421.058 68.96C421.058 68.0267 420.698 67.28 419.978 66.72C419.285 66.16 418.271 65.88 416.938 65.88C415.818 65.88 414.738 66.1333 413.698 66.64C412.658 67.1467 411.751 67.8667 410.978 68.8L406.618 65.64C407.765 64.0667 409.338 62.8267 411.338 61.92C413.338 60.9867 415.525 60.52 417.898 60.52C419.845 60.52 421.551 60.84 423.018 61.48C424.511 62.12 425.658 63.0133 426.458 64.16C427.285 65.3067 427.698 66.6 427.698 68.04C427.698 69.7733 427.218 71.4 426.258 72.92C425.298 74.44 423.631 76.12 421.258 77.96L413.818 83.72ZM446.252 60.52C448.492 60.52 450.452 60.96 452.132 61.84C453.839 62.72 455.159 64.0267 456.092 65.76C457.052 67.4667 457.532 69.5467 457.532 72C457.532 74.8267 456.932 77.5867 455.732 80.28C454.532 82.9467 452.665 85.1467 450.132 86.88C447.599 88.6133 444.465 89.48 440.732 89.48C439.185 89.48 437.705 89.32 436.292 89C434.905 88.6533 433.772 88.1867 432.892 87.6L435.852 82.84C437.185 83.7467 438.932 84.2 441.092 84.2C443.705 84.2 445.785 83.4667 447.332 82C448.905 80.5333 449.945 78.64 450.452 76.32C448.852 77.8133 446.759 78.56 444.172 78.56C442.492 78.56 440.959 78.24 439.572 77.6C438.185 76.96 437.079 76.04 436.252 74.84C435.425 73.6133 435.012 72.16 435.012 70.48C435.012 68.48 435.492 66.7333 436.452 65.24C437.439 63.72 438.785 62.56 440.492 61.76C442.199 60.9333 444.119 60.52 446.252 60.52ZM445.852 73.72C447.372 73.72 448.599 73.3067 449.532 72.48C450.465 71.6533 450.932 70.6 450.932 69.32C450.932 68.2 450.519 67.2667 449.692 66.52C448.865 65.7467 447.745 65.36 446.332 65.36C444.892 65.36 443.719 65.7733 442.812 66.6C441.905 67.4267 441.452 68.5333 441.452 69.92C441.452 71.0933 441.852 72.0267 442.652 72.72C443.452 73.3867 444.519 73.72 445.852 73.72ZM478.406 61L472.806 89H466.326L470.886 66.2H465.286L466.326 61H478.406ZM492.71 83.72H504.47L503.43 89H482.23L483.07 84.8L495.83 74.8C497.377 73.5467 498.444 72.4933 499.03 71.64C499.644 70.7867 499.95 69.8933 499.95 68.96C499.95 68.0267 499.59 67.28 498.87 66.72C498.177 66.16 497.164 65.88 495.83 65.88C494.71 65.88 493.63 66.1333 492.59 66.64C491.55 67.1467 490.644 67.8667 489.87 68.8L485.51 65.64C486.657 64.0667 488.23 62.8267 490.23 61.92C492.23 60.9867 494.417 60.52 496.79 60.52C498.737 60.52 500.444 60.84 501.91 61.48C503.404 62.12 504.55 63.0133 505.35 64.16C506.177 65.3067 506.59 66.6 506.59 68.04C506.59 69.7733 506.11 71.4 505.15 72.92C504.19 74.44 502.524 76.12 500.15 77.96L492.71 83.72Z" fill="white"/>
<path d="M200.736 87.96L201.178 87.0633L201.178 87.0633L200.736 87.96ZM196.016 83.68L196.876 83.1692L196.876 83.1692L196.016 83.68ZM196.536 68.76L195.668 68.2629L195.667 68.2658L196.536 68.76ZM202.656 62.72L202.17 61.8458L202.167 61.8479L202.656 62.72ZM218.976 62.04L218.533 62.9367L218.533 62.9367L218.976 62.04ZM223.136 81.28L222.268 80.7829L222.267 80.7858L223.136 81.28ZM217.016 87.28L216.53 86.4058L216.527 86.4079L217.016 87.28ZM213.976 82.48L213.438 81.6369L213.438 81.6369L213.976 82.48ZM217.536 78.52L218.43 78.9672L218.43 78.9672L217.536 78.52ZM216.776 67.96L216.083 68.6814L216.091 68.6886L216.776 67.96ZM202.176 71.48L201.282 71.0328L201.282 71.0328L202.176 71.48ZM202.936 82.08L202.243 82.8014L202.251 82.8086L202.936 82.08ZM208.016 88.48C205.336 88.48 203.067 87.9952 201.178 87.0633L200.293 88.8567C202.512 89.9515 205.096 90.48 208.016 90.48V88.48ZM201.178 87.0633C199.286 86.1293 197.863 84.8312 196.876 83.1692L195.156 84.1908C196.355 86.2088 198.079 87.7641 200.293 88.8567L201.178 87.0633ZM196.876 83.1692C195.885 81.5019 195.376 79.5625 195.376 77.32H193.376C193.376 79.8775 193.96 82.1781 195.156 84.1908L196.876 83.1692ZM195.376 77.32C195.376 74.3041 196.058 71.6237 197.405 69.2542L195.667 68.2658C194.133 70.963 193.376 73.9893 193.376 77.32H195.376ZM197.404 69.2571C198.779 66.8566 200.687 64.9717 203.145 63.5921L202.167 61.8479C199.398 63.4016 197.226 65.5434 195.668 68.2629L197.404 69.2571ZM203.142 63.5942C205.616 62.2197 208.458 61.52 211.696 61.52V59.52C208.16 59.52 204.976 60.287 202.17 61.8458L203.142 63.5942ZM211.696 61.52C214.376 61.52 216.645 62.0048 218.533 62.9367L219.418 61.1433C217.2 60.0485 214.616 59.52 211.696 59.52V61.52ZM218.533 62.9367C220.426 63.8707 221.849 65.1688 222.836 66.8308L224.556 65.8092C223.357 63.7912 221.633 62.2359 219.418 61.1433L218.533 62.9367ZM222.836 66.8308C223.827 68.4981 224.336 70.4375 224.336 72.68H226.336C226.336 70.1225 225.752 67.8219 224.556 65.8092L222.836 66.8308ZM224.336 72.68C224.336 75.6925 223.642 78.3856 222.268 80.7829L224.004 81.7771C225.564 79.0544 226.336 76.0141 226.336 72.68H224.336ZM222.267 80.7858C220.921 83.1537 219.016 85.0249 216.53 86.4058L217.502 88.1542C220.296 86.6018 222.471 84.4729 224.005 81.7742L222.267 80.7858ZM216.527 86.4079C214.081 87.7803 211.254 88.48 208.016 88.48V90.48C211.551 90.48 214.724 89.713 217.505 88.1521L216.527 86.4079ZM208.576 84.96C210.796 84.96 212.788 84.4241 214.514 83.3231L213.438 81.6369C212.071 82.5092 210.462 82.96 208.576 82.96V84.96ZM214.514 83.3231C216.214 82.2383 217.523 80.781 218.43 78.9672L216.642 78.0728C215.895 79.5656 214.831 80.7483 213.438 81.6369L214.514 83.3231ZM218.43 78.9672C219.332 77.1639 219.776 75.1823 219.776 73.04H217.776C217.776 74.8977 217.393 76.5695 216.642 78.0728L218.43 78.9672ZM219.776 73.04C219.776 70.6806 219.029 68.7054 217.461 67.2314L216.091 68.6886C217.19 69.7213 217.776 71.1327 217.776 73.04H219.776ZM217.468 67.2386C215.896 65.7294 213.737 65.04 211.136 65.04V67.04C213.388 67.04 214.989 67.6306 216.083 68.6814L217.468 67.2386ZM211.136 65.04C208.915 65.04 206.924 65.5759 205.198 66.6769L206.274 68.3631C207.641 67.4908 209.25 67.04 211.136 67.04V65.04ZM205.198 66.6769C203.498 67.7617 202.188 69.219 201.282 71.0328L203.07 71.9272C203.817 70.4344 204.881 69.2517 206.274 68.3631L205.198 66.6769ZM201.282 71.0328C200.38 72.8361 199.936 74.8177 199.936 76.96H201.936C201.936 75.1023 202.319 73.4305 203.07 71.9272L201.282 71.0328ZM199.936 76.96C199.936 79.3198 200.683 81.3033 202.243 82.8014L203.628 81.3586C202.522 80.2967 201.936 78.8668 201.936 76.96H199.936ZM202.251 82.8086C203.824 84.2869 205.98 84.96 208.576 84.96V82.96C206.319 82.96 204.715 82.3797 203.621 81.3514L202.251 82.8086ZM234.166 88.72L233.916 89.6883L233.925 89.6906L233.934 89.6928L234.166 88.72ZM230.286 87.08L229.403 86.611L228.992 87.3846L229.705 87.8937L230.286 87.08ZM232.686 82.56L233.235 81.7243L232.318 81.1214L231.803 82.091L232.686 82.56ZM236.086 84.04L235.816 85.003L235.821 85.0043L236.086 84.04ZM243.326 84.08L243.773 84.9744L243.787 84.9677L243.8 84.9605L243.326 84.08ZM243.446 81.36L243.81 80.4288L243.81 80.4288L243.446 81.36ZM240.486 80.6L240.678 79.6187L240.672 79.6175L240.486 80.6ZM236.646 79.64L236.314 80.5835L236.322 80.5862L236.646 79.64ZM234.046 77.96L233.303 78.629L233.314 78.642L233.327 78.6546L234.046 77.96ZM235.926 69.16L235.371 68.3279L235.366 68.3314L235.926 69.16ZM248.126 67.64L248.347 66.6647L248.347 66.6647L248.126 67.64ZM251.726 68.96L252.623 69.4009L253.039 68.5553L252.22 68.0903L251.726 68.96ZM249.486 73.52L248.958 74.3694L249.896 74.9523L250.383 73.9609L249.486 73.52ZM240.006 72.48L239.52 71.6058L239.513 71.6098L239.506 71.6138L240.006 72.48ZM239.886 75.24L239.487 76.1571L239.504 76.1645L239.522 76.1712L239.886 75.24ZM242.966 76.04L242.766 77.0199L242.776 77.0219L242.966 76.04ZM246.686 77L246.346 77.9406L246.362 77.9461L246.377 77.9512L246.686 77ZM249.246 78.64L248.514 79.3214L248.514 79.3214L249.246 78.64ZM247.286 87.36L246.744 86.5195L246.739 86.5228L247.286 87.36ZM239.486 88.32C237.691 88.32 235.996 88.1277 234.398 87.7472L233.934 89.6928C235.696 90.1123 237.548 90.32 239.486 90.32V88.32ZM234.416 87.7517C232.829 87.3422 231.664 86.8356 230.867 86.2663L229.705 87.8937C230.774 88.6578 232.196 89.2445 233.916 89.6883L234.416 87.7517ZM231.169 87.549L233.569 83.029L231.803 82.091L229.403 86.611L231.169 87.549ZM232.137 83.3957C233.174 84.0773 234.407 84.6082 235.816 85.003L236.356 83.077C235.099 82.7251 234.065 82.2694 233.235 81.7243L232.137 83.3957ZM235.821 85.0043C237.264 85.4005 238.713 85.6 240.166 85.6V83.6C238.899 83.6 237.628 83.4262 236.351 83.0757L235.821 85.0043ZM240.166 85.6C241.627 85.6 242.869 85.4265 243.773 84.9744L242.879 83.1856C242.396 83.4269 241.532 83.6 240.166 83.6V85.6ZM243.8 84.9605C244.747 84.4507 245.366 83.6283 245.366 82.52H243.366C243.366 82.745 243.292 82.9626 242.852 83.1995L243.8 84.9605ZM245.366 82.52C245.366 82.0472 245.225 81.5934 244.919 81.2086C244.625 80.8379 244.228 80.5923 243.81 80.4288L243.082 82.2912C243.277 82.3677 243.34 82.4354 243.352 82.4514C243.358 82.4584 243.359 82.4613 243.36 82.4637C243.361 82.4671 243.366 82.4835 243.366 82.52H245.366ZM243.81 80.4288C243.109 80.1541 242.048 79.8872 240.678 79.6187L240.294 81.5813C241.644 81.8462 242.557 82.0859 243.082 82.2912L243.81 80.4288ZM240.672 79.6175C239.153 79.3293 237.923 79.0198 236.97 78.6938L236.322 80.5862C237.396 80.9535 238.726 81.284 240.3 81.5825L240.672 79.6175ZM236.977 78.6965C236.142 78.403 235.407 77.9299 234.765 77.2654L233.327 78.6546C234.178 79.5367 235.177 80.1837 236.314 80.5835L236.977 78.6965ZM234.789 77.291C234.275 76.7193 233.966 75.9004 233.966 74.72H231.966C231.966 76.2596 232.377 77.6007 233.303 78.629L234.789 77.291ZM233.966 74.72C233.966 72.6802 234.787 71.1367 236.486 69.9886L235.366 68.3314C233.119 69.8499 231.966 72.0131 231.966 74.72H233.966ZM236.481 69.992C238.269 68.7999 240.671 68.16 243.766 68.16V66.16C240.408 66.16 237.583 66.8534 235.371 68.3279L236.481 69.992ZM243.766 68.16C245.187 68.16 246.566 68.3122 247.905 68.6153L248.347 66.6647C246.859 66.3278 245.331 66.16 243.766 66.16V68.16ZM247.905 68.6153C249.248 68.9193 250.351 69.3293 251.232 69.8297L252.22 68.0903C251.128 67.4707 249.831 67.0007 248.347 66.6647L247.905 68.6153ZM250.828 68.5191L248.588 73.0791L250.383 73.9609L252.623 69.4009L250.828 68.5191ZM250.014 72.6706C248.066 71.4609 245.755 70.88 243.126 70.88V72.88C245.456 72.88 247.385 73.3924 248.958 74.3694L250.014 72.6706ZM243.126 70.88C241.694 70.88 240.456 71.086 239.52 71.6058L240.492 73.3542C240.996 73.074 241.838 72.88 243.126 72.88V70.88ZM239.506 71.6138C238.612 72.1299 237.966 72.9197 237.966 74H239.966C239.966 73.8536 240.014 73.6301 240.506 73.3462L239.506 71.6138ZM237.966 74C237.966 74.4746 238.1 74.9315 238.393 75.3258C238.677 75.7092 239.067 75.9743 239.487 76.1571L240.285 74.3229C240.092 74.239 240.021 74.1641 239.999 74.1342C239.985 74.1152 239.966 74.0854 239.966 74H237.966ZM239.522 76.1712C240.221 76.4451 241.321 76.7255 242.766 77.0199L243.166 75.0601C241.73 74.7678 240.777 74.5149 240.25 74.3088L239.522 76.1712ZM242.776 77.0219C244.269 77.3098 245.453 77.6181 246.346 77.9406L247.026 76.0594C245.999 75.6886 244.703 75.3568 243.155 75.0581L242.776 77.0219ZM246.377 77.9512C247.199 78.2177 247.908 78.6701 248.514 79.3214L249.978 77.9586C249.144 77.0632 248.146 76.4223 246.994 76.0488L246.377 77.9512ZM248.514 79.3214C249.02 79.8647 249.326 80.6506 249.326 81.8H251.326C251.326 80.2828 250.912 78.9619 249.978 77.9586L248.514 79.3214ZM249.326 81.8C249.326 83.8583 248.487 85.3959 246.744 86.5195L247.828 88.2005C250.138 86.7107 251.326 84.5417 251.326 81.8H249.326ZM246.739 86.5228C244.948 87.6928 242.556 88.32 239.486 88.32V90.32C242.816 90.32 245.624 89.6405 247.833 88.1972L246.739 86.5228ZM273.736 76.84L273.096 76.0716L272.433 76.6233L272.882 77.3599L273.736 76.84ZM281.136 89V90H282.915L281.99 88.4801L281.136 89ZM273.896 89L273.043 89.5223L273.336 90H273.896V89ZM268.776 80.64L269.629 80.1177L269.025 79.1322L268.137 79.8711L268.776 80.64ZM264.976 83.8L264.337 83.0311L264.065 83.2572L263.995 83.6039L264.976 83.8ZM263.936 89V90H264.756L264.917 89.1961L263.936 89ZM257.696 89L256.715 88.8044L256.477 90H257.696V89ZM263.616 59.32V58.32H262.796L262.635 59.1244L263.616 59.32ZM269.856 59.32L270.837 59.5161L271.076 58.32H269.856V59.32ZM266.536 75.92L265.555 75.7239L265.008 78.4616L267.169 76.6941L266.536 75.92ZM276.856 67.48V66.48H276.499L276.223 66.7059L276.856 67.48ZM284.976 67.48L285.616 68.2484L287.739 66.48H284.976V67.48ZM272.882 77.3599L280.282 89.5199L281.99 88.4801L274.59 76.3201L272.882 77.3599ZM281.136 88H273.896V90H281.136V88ZM274.749 88.4777L269.629 80.1177L267.923 81.1623L273.043 89.5223L274.749 88.4777ZM268.137 79.8711L264.337 83.0311L265.615 84.5689L269.415 81.4089L268.137 79.8711ZM263.995 83.6039L262.955 88.8039L264.917 89.1961L265.957 83.9961L263.995 83.6039ZM263.936 88H257.696V90H263.936V88ZM258.677 89.1956L264.597 59.5156L262.635 59.1244L256.715 88.8044L258.677 89.1956ZM263.616 60.32H269.856V58.32H263.616V60.32ZM268.875 59.1239L265.555 75.7239L267.517 76.1161L270.837 59.5161L268.875 59.1239ZM267.169 76.6941L277.489 68.2541L276.223 66.7059L265.903 75.1459L267.169 76.6941ZM276.856 68.48H284.976V66.48H276.856V68.48ZM284.336 66.7116L273.096 76.0716L274.376 77.6084L285.616 68.2484L284.336 66.7116ZM313.46 67.48L314.44 67.6751L314.678 66.48H313.46V67.48ZM309.18 89V90H310L310.16 89.1951L309.18 89ZM303.26 89L302.277 88.8146L302.053 90H303.26V89ZM303.66 86.88L304.642 87.0654L305.196 84.1284L302.986 86.1406L303.66 86.88ZM292.42 88.16L292.9 87.2827L292.9 87.2827L292.42 88.16ZM289.02 84.84L288.149 85.331L288.154 85.3405L288.159 85.3498L289.02 84.84ZM289.34 73.28L288.466 72.7944L288.463 72.7986L289.34 73.28ZM293.66 68.8L294.167 69.662L294.176 69.6564L293.66 68.8ZM306.66 70.4L305.813 70.9328L307.164 73.0782L307.642 70.5883L306.66 70.4ZM307.22 67.48V66.48H306.393L306.238 67.2916L307.22 67.48ZM302.26 83.28L302.781 84.1333L302.79 84.1281L302.798 84.1227L302.26 83.28ZM304.5 80.76L303.605 80.3128L303.605 80.3128L304.5 80.76ZM303.98 73.6L303.273 74.3071L303.278 74.3125L303.284 74.3179L303.98 73.6ZM297.1 73.24L297.621 74.0933L297.63 74.0881L297.638 74.0827L297.1 73.24ZM294.86 75.72L295.754 76.1672L295.754 76.1672L294.86 75.72ZM295.34 82.88L294.633 83.5871L294.638 83.5925L294.644 83.5979L295.34 82.88ZM312.479 67.2849L308.199 88.8049L310.16 89.1951L314.44 67.6751L312.479 67.2849ZM309.18 88H303.26V90H309.18V88ZM304.242 89.1854L304.642 87.0654L302.677 86.6946L302.277 88.8146L304.242 89.1854ZM302.986 86.1406C301.4 87.5853 299.446 88.32 297.06 88.32V90.32C299.9 90.32 302.346 89.4281 304.333 87.6194L302.986 86.1406ZM297.06 88.32C295.54 88.32 294.159 87.972 292.9 87.2827L291.94 89.0373C293.507 89.8946 295.219 90.32 297.06 90.32V88.32ZM292.9 87.2827C291.65 86.599 290.646 85.6221 289.88 84.3302L288.159 85.3498C289.1 86.9379 290.363 88.1743 291.94 89.0373L292.9 87.2827ZM289.891 84.349C289.162 83.0562 288.78 81.5111 288.78 79.68H286.78C286.78 81.7956 287.224 83.6905 288.149 85.331L289.891 84.349ZM288.78 79.68C288.78 77.458 289.265 75.493 290.216 73.7614L288.463 72.7986C287.334 74.8536 286.78 77.1553 286.78 79.68H288.78ZM290.214 73.7656C291.198 71.9944 292.514 70.6341 294.167 69.6619L293.153 67.9381C291.179 69.0992 289.615 70.7256 288.466 72.7944L290.214 73.7656ZM294.176 69.6564C295.828 68.6602 297.649 68.16 299.66 68.16V66.16C297.297 66.16 295.118 66.7532 293.143 67.9436L294.176 69.6564ZM299.66 68.16C302.738 68.16 304.69 69.1491 305.813 70.9328L307.506 69.8672C305.909 67.3309 303.195 66.16 299.66 66.16V68.16ZM307.642 70.5883L308.202 67.6683L306.238 67.2916L305.678 70.2117L307.642 70.5883ZM307.22 68.48H313.46V66.48H307.22V68.48ZM298.98 85.16C300.373 85.16 301.65 84.8245 302.781 84.1333L301.738 82.4267C300.949 82.9088 300.04 83.16 298.98 83.16V85.16ZM302.798 84.1227C303.918 83.4075 304.784 82.4275 305.394 81.2072L303.605 80.3128C303.149 81.2258 302.522 81.9259 301.721 82.4373L302.798 84.1227ZM305.394 81.2072C306.007 79.9807 306.3 78.5967 306.3 77.08H304.3C304.3 78.3367 304.059 79.4059 303.605 80.3128L305.394 81.2072ZM306.3 77.08C306.3 75.4 305.788 73.9602 304.676 72.8821L303.284 74.3179C303.932 74.9465 304.3 75.8267 304.3 77.08H306.3ZM304.687 72.8929C303.597 71.8031 302.113 71.32 300.38 71.32V73.32C301.739 73.32 302.656 73.6902 303.273 74.3071L304.687 72.8929ZM300.38 71.32C298.978 71.32 297.694 71.6733 296.561 72.3973L297.638 74.0827C298.425 73.58 299.329 73.32 300.38 73.32V71.32ZM296.578 72.3867C295.449 73.0771 294.577 74.049 293.965 75.2728L295.754 76.1672C296.209 75.2577 296.831 74.5763 297.621 74.0933L296.578 72.3867ZM293.965 75.2728C293.352 76.4993 293.06 77.8833 293.06 79.4H295.06C295.06 78.1433 295.301 77.0741 295.754 76.1672L293.965 75.2728ZM293.06 79.4C293.06 81.071 293.553 82.5072 294.633 83.5871L296.047 82.1729C295.42 81.5462 295.06 80.6623 295.06 79.4H293.06ZM294.644 83.5979C295.756 84.6764 297.244 85.16 298.98 85.16V83.16C297.622 83.16 296.684 82.7903 296.036 82.1621L294.644 83.5979ZM329.437 70.04L328.457 69.8409L327.743 73.355L330.172 70.7175L329.437 70.04ZM332.797 67.84L332.475 66.8932L332.469 66.8952L332.797 67.84ZM337.477 67.16L338.458 67.3509L338.69 66.16H337.477V67.16ZM336.357 72.92L336.286 73.9175L337.169 73.9806L337.338 73.1109L336.357 72.92ZM330.357 74.24L329.726 73.4644L329.717 73.4718L330.357 74.24ZM328.077 78.6L327.097 78.4013L327.096 78.4039L328.077 78.6ZM325.997 89V90H326.817L326.977 89.1961L325.997 89ZM319.757 89L318.776 88.8049L318.538 90H319.757V89ZM324.037 67.48V66.48H323.216L323.056 67.2849L324.037 67.48ZM329.957 67.48L330.937 67.6791L331.18 66.48H329.957V67.48ZM330.172 70.7175C330.994 69.826 331.973 69.1842 333.125 68.7848L332.469 66.8952C331.007 67.4024 329.747 68.2273 328.701 69.3625L330.172 70.7175ZM333.119 68.7868C334.325 68.3767 335.772 68.16 337.477 68.16V66.16C335.609 66.16 333.936 66.3966 332.475 66.8932L333.119 68.7868ZM336.495 66.9691L335.375 72.7291L337.338 73.1109L338.458 67.3509L336.495 66.9691ZM336.428 71.9225C335.691 71.8699 335.173 71.84 334.917 71.84V73.84C335.087 73.84 335.529 73.8634 336.286 73.9175L336.428 71.9225ZM334.917 71.84C332.859 71.84 331.096 72.3493 329.726 73.4644L330.988 75.0156C331.911 74.264 333.188 73.84 334.917 73.84V71.84ZM329.717 73.4718C328.366 74.5975 327.525 76.289 327.097 78.4013L329.057 78.7987C329.429 76.9643 330.108 75.7491 330.997 75.0082L329.717 73.4718ZM327.096 78.4039L325.016 88.8039L326.977 89.1961L329.057 78.7961L327.096 78.4039ZM325.997 88H319.757V90H325.997V88ZM320.738 89.1951L325.018 67.6751L323.056 67.2849L318.776 88.8049L320.738 89.1951ZM324.037 68.48H329.957V66.48H324.037V68.48ZM328.977 67.2809L328.457 69.8409L330.417 70.2391L330.937 67.6791L328.977 67.2809ZM366.365 83.12V84.12H367.181L367.345 83.3204L366.365 83.12ZM361.765 83.12V82.12H360.943L360.784 82.9265L361.765 83.12ZM360.605 89V90H361.427L361.586 89.1935L360.605 89ZM354.285 89L353.305 88.8L353.06 90H354.285V89ZM355.485 83.12L356.465 83.32L356.71 82.12H355.485V83.12ZM340.405 83.12L339.423 82.9308L339.194 84.12H340.405V83.12ZM341.245 78.76L340.512 78.0798L340.317 78.2897L340.263 78.5708L341.245 78.76ZM357.725 61V60H357.289L356.992 60.3198L357.725 61ZM364.805 61L365.544 61.6739L367.071 60H364.805V61ZM349.445 77.84L348.706 77.1661L347.179 78.84H349.445V77.84ZM356.805 77.84V78.84H357.626L357.786 78.0347L356.805 77.84ZM357.845 72.6V71.6H357.024L356.864 72.4053L357.845 72.6ZM363.885 72.6L364.866 72.7947L365.103 71.6H363.885V72.6ZM362.845 77.84L361.864 77.6453L361.627 78.84H362.845V77.84ZM367.445 77.84L368.425 78.0404L368.67 76.84H367.445V77.84ZM366.365 82.12H361.765V84.12H366.365V82.12ZM360.784 82.9265L359.624 88.8065L361.586 89.1935L362.746 83.3135L360.784 82.9265ZM360.605 88H354.285V90H360.605V88ZM355.265 89.2L356.465 83.32L354.505 82.92L353.305 88.8L355.265 89.2ZM355.485 82.12H340.405V84.12H355.485V82.12ZM341.387 83.3092L342.227 78.9492L340.263 78.5708L339.423 82.9308L341.387 83.3092ZM341.978 79.4402L358.458 61.6802L356.992 60.3198L340.512 78.0798L341.978 79.4402ZM357.725 62H364.805V60H357.725V62ZM364.066 60.3261L348.706 77.1661L350.184 78.5139L365.544 61.6739L364.066 60.3261ZM349.445 78.84H356.805V76.84H349.445V78.84ZM357.786 78.0347L358.826 72.7947L356.864 72.4053L355.824 77.6453L357.786 78.0347ZM357.845 73.6H363.885V71.6H357.845V73.6ZM362.904 72.4053L361.864 77.6453L363.826 78.0347L364.866 72.7947L362.904 72.4053ZM362.845 78.84H367.445V76.84H362.845V78.84ZM366.465 77.6396L365.385 82.9196L367.345 83.3204L368.425 78.0404L366.465 77.6396ZM377.063 86.68L376.341 87.3717L376.346 87.3768L377.063 86.68ZM376.183 69.64L375.27 69.2314L375.267 69.2387L376.183 69.64ZM381.383 63L381.975 63.8058L381.982 63.8012L381.383 63ZM396.343 63.36L395.621 64.0517L395.626 64.0568L396.343 63.36ZM397.183 80.36L396.27 79.9514L396.267 79.9587L397.183 80.36ZM392.023 87.04L392.615 87.8458L392.622 87.8412L392.023 87.04ZM389.063 82L388.305 81.3479L388.297 81.3568L389.063 82ZM391.663 77.04L392.622 77.325L392.623 77.3215L391.663 77.04ZM391.423 67.32L390.649 67.9532L390.66 67.966L390.671 67.9785L391.423 67.32ZM384.303 68L383.545 67.3479L383.537 67.3568L384.303 68ZM381.743 73L382.702 73.285L382.703 73.2815L381.743 73ZM381.943 82.72L381.169 83.3532L381.18 83.366L381.191 83.3785L381.943 82.72ZM384.463 88.48C381.556 88.48 379.369 87.6182 377.78 85.9832L376.346 87.3768C378.384 89.4752 381.131 90.48 384.463 90.48V88.48ZM377.785 85.9883C376.194 84.3265 375.343 81.9994 375.343 78.88H373.343C373.343 82.374 374.306 85.2469 376.341 87.3717L377.785 85.9883ZM375.343 78.88C375.343 75.6443 375.933 72.7027 377.099 70.0413L375.267 69.2387C373.98 72.1773 373.343 75.3957 373.343 78.88H375.343ZM377.096 70.0486C378.287 67.3876 379.917 65.3184 381.975 63.8058L380.791 62.1942C378.422 63.9349 376.586 66.2924 375.27 69.2314L377.096 70.0486ZM381.982 63.8012C384.018 62.2801 386.327 61.52 388.943 61.52V59.52C385.906 59.52 383.175 60.4132 380.785 62.1988L381.982 63.8012ZM388.943 61.52C391.846 61.52 394.032 62.3924 395.621 64.0517L397.065 62.6683C395.028 60.5409 392.28 59.52 388.943 59.52V61.52ZM395.626 64.0568C397.212 65.6899 398.063 67.9999 398.063 71.12H400.063C400.063 67.6268 399.101 64.7634 397.06 62.6632L395.626 64.0568ZM398.063 71.12C398.063 74.3527 397.461 77.2918 396.27 79.9514L398.096 80.7686C399.412 77.8282 400.063 74.6073 400.063 71.12H398.063ZM396.267 79.9587C395.102 82.6175 393.485 84.6998 391.425 86.2388L392.622 87.8412C394.988 86.0735 396.811 83.7025 398.099 80.7613L396.267 79.9587ZM391.431 86.2342C389.395 87.7308 387.083 88.48 384.463 88.48V90.48C387.496 90.48 390.225 89.6025 392.615 87.8458L391.431 86.2342ZM385.063 85C386.945 85 388.546 84.1707 389.829 82.6432L388.297 81.3568C387.341 82.4959 386.275 83 385.063 83V85ZM389.821 82.652C391.074 81.1951 392.002 79.4106 392.622 77.325L390.705 76.755C390.151 78.6161 389.345 80.1382 388.305 81.348L389.821 82.652ZM392.623 77.3215C393.233 75.242 393.543 73.2269 393.543 71.28H391.543C391.543 73.0131 391.267 74.838 390.704 76.7585L392.623 77.3215ZM393.543 71.28C393.543 69.3836 393.152 67.7768 392.176 66.6615L390.671 67.9785C391.188 68.5698 391.543 69.6031 391.543 71.28H393.543ZM392.197 66.6868C391.253 65.5334 389.919 65 388.343 65V67C389.434 67 390.153 67.3466 390.649 67.9532L392.197 66.6868ZM388.343 65C386.463 65 384.853 65.8275 383.545 67.348L385.061 68.652C386.047 67.5058 387.13 67 388.343 67V65ZM383.537 67.3568C382.313 68.8147 381.402 70.6115 380.784 72.7185L382.703 73.2815C383.258 71.3885 384.053 69.8519 385.069 68.6432L383.537 67.3568ZM380.785 72.715C380.174 74.77 379.863 76.7728 379.863 78.72H381.863C381.863 76.9872 382.139 75.1766 382.702 73.285L380.785 72.715ZM379.863 78.72C379.863 80.6131 380.24 82.2175 381.169 83.3532L382.717 82.0868C382.206 81.4625 381.863 80.4002 381.863 78.72H379.863ZM381.191 83.3785C382.161 84.4876 383.497 85 385.063 85V83C383.962 83 383.219 82.6591 382.696 82.0615L381.191 83.3785ZM413.818 83.72L413.206 82.9293L410.893 84.72H413.818V83.72ZM425.578 83.72L426.559 83.9133L426.794 82.72H425.578V83.72ZM424.538 89V90H425.36L425.519 89.1933L424.538 89ZM403.338 89L402.358 88.8039L402.118 90H403.338V89ZM404.178 84.8L403.561 84.0129L403.27 84.2411L403.198 84.6039L404.178 84.8ZM416.938 74.8L417.555 75.5871L417.561 75.5821L417.568 75.5769L416.938 74.8ZM420.138 71.64L419.326 71.0564L419.32 71.0649L419.314 71.0735L420.138 71.64ZM419.978 66.72L419.35 67.4979L419.357 67.5037L419.364 67.5094L419.978 66.72ZM413.698 66.64L413.26 65.741L413.26 65.741L413.698 66.64ZM410.978 68.8L410.391 69.6097L411.15 70.1597L411.748 69.438L410.978 68.8ZM406.618 65.64L405.81 65.051L405.219 65.8613L406.031 66.4497L406.618 65.64ZM411.338 61.92L411.751 62.8308L411.761 62.8262L411.338 61.92ZM423.018 61.48L422.618 62.3966L422.624 62.3991L423.018 61.48ZM426.458 64.16L425.638 64.7322L425.642 64.7385L425.647 64.7448L426.458 64.16ZM426.258 72.92L427.104 73.454L427.104 73.454L426.258 72.92ZM421.258 77.96L421.87 78.7507L421.871 78.7503L421.258 77.96ZM413.818 84.72H425.578V82.72H413.818V84.72ZM424.597 83.5267L423.557 88.8067L425.519 89.1933L426.559 83.9133L424.597 83.5267ZM424.538 88H403.338V90H424.538V88ZM404.319 89.1961L405.159 84.9961L403.198 84.6039L402.358 88.8039L404.319 89.1961ZM404.795 85.5871L417.555 75.5871L416.321 74.0129L403.561 84.0129L404.795 85.5871ZM417.568 75.5769C419.134 74.308 420.292 73.1816 420.962 72.2065L419.314 71.0735C418.811 71.805 417.836 72.7854 416.309 74.0231L417.568 75.5769ZM420.95 72.2236C421.67 71.2226 422.058 70.1287 422.058 68.96H420.058C420.058 69.658 419.833 70.3507 419.326 71.0564L420.95 72.2236ZM422.058 68.96C422.058 67.7265 421.562 66.6852 420.592 65.9306L419.364 67.5094C419.834 67.8748 420.058 68.3269 420.058 68.96H422.058ZM420.606 65.9421C419.666 65.1823 418.391 64.88 416.938 64.88V66.88C418.152 66.88 418.904 67.1377 419.35 67.4979L420.606 65.9421ZM416.938 64.88C415.661 64.88 414.432 65.1701 413.26 65.741L414.136 67.539C415.044 67.0965 415.975 66.88 416.938 66.88V64.88ZM413.26 65.741C412.086 66.313 411.068 67.1244 410.208 68.162L411.748 69.438C412.435 68.609 413.23 67.9803 414.136 67.539L413.26 65.741ZM411.565 67.9903L407.205 64.8303L406.031 66.4497L410.391 69.6097L411.565 67.9903ZM407.426 66.229C408.459 64.8124 409.888 63.6754 411.751 62.8308L410.925 61.0092C408.788 61.9779 407.071 63.321 405.81 65.051L407.426 66.229ZM411.761 62.8262C413.619 61.9592 415.66 61.52 417.898 61.52V59.52C415.39 59.52 413.057 60.0141 410.915 61.0138L411.761 62.8262ZM417.898 61.52C419.736 61.52 421.302 61.8221 422.618 62.3965L423.418 60.5635C421.801 59.8579 419.953 59.52 417.898 59.52V61.52ZM422.624 62.3991C423.974 62.9777 424.961 63.7621 425.638 64.7322L427.278 63.5878C426.355 62.2645 425.049 61.2623 423.412 60.5609L422.624 62.3991ZM425.647 64.7448C426.348 65.7178 426.698 66.8057 426.698 68.04H428.698C428.698 66.3943 428.221 64.8955 427.269 63.5752L425.647 64.7448ZM426.698 68.04C426.698 69.577 426.276 71.0196 425.413 72.386L427.104 73.454C428.161 71.7804 428.698 69.9696 428.698 68.04H426.698ZM425.413 72.386C424.543 73.7636 422.98 75.3598 420.645 77.1697L421.871 78.7503C424.283 76.8802 426.054 75.1164 427.104 73.454L425.413 72.386ZM420.646 77.1693L413.206 82.9293L414.43 84.5107L421.87 78.7507L420.646 77.1693ZM452.132 61.84L451.668 62.7258L451.674 62.7288L452.132 61.84ZM456.092 65.76L455.211 66.2341L455.216 66.2422L455.22 66.2503L456.092 65.76ZM455.732 80.28L456.644 80.6904L456.645 80.687L455.732 80.28ZM450.132 86.88L449.567 86.0547L449.567 86.0547L450.132 86.88ZM436.292 89L436.049 89.9701L436.06 89.9728L436.071 89.9753L436.292 89ZM432.892 87.6L432.043 87.0719L431.531 87.8946L432.337 88.4321L432.892 87.6ZM435.852 82.84L436.414 82.0131L435.553 81.4273L435.003 82.3119L435.852 82.84ZM447.332 82L446.65 81.2685L446.644 81.2744L447.332 82ZM450.452 76.32L451.429 76.5334L452.113 73.402L449.77 75.5889L450.452 76.32ZM439.572 77.6L439.991 76.692L439.991 76.692L439.572 77.6ZM436.252 74.84L435.423 75.3989L435.428 75.4073L436.252 74.84ZM436.452 65.24L435.613 64.6955L435.611 64.6992L436.452 65.24ZM440.492 61.76L440.916 62.6655L440.928 62.66L440.492 61.76ZM449.532 72.48L450.195 73.2286L450.195 73.2286L449.532 72.48ZM449.692 66.52L449.009 67.2503L449.015 67.2562L449.022 67.2621L449.692 66.52ZM442.812 66.6L443.486 67.339L443.486 67.339L442.812 66.6ZM442.652 72.72L441.997 73.4757L442.004 73.482L442.012 73.4882L442.652 72.72ZM446.252 61.52C448.359 61.52 450.155 61.9333 451.668 62.7258L452.596 60.9542C450.749 59.9867 448.624 59.52 446.252 59.52V61.52ZM451.674 62.7288C453.196 63.5139 454.371 64.6737 455.211 66.2341L456.972 65.2859C455.946 63.3797 454.481 61.9261 452.59 60.9512L451.674 62.7288ZM455.22 66.2503C456.077 67.7739 456.532 69.6756 456.532 72H458.532C458.532 69.4177 458.026 67.1594 456.963 65.2697L455.22 66.2503ZM456.532 72C456.532 74.6804 455.964 77.3021 454.818 79.873L456.645 80.687C457.9 77.8712 458.532 74.9729 458.532 72H456.532ZM454.82 79.8696C453.699 82.3602 451.957 84.4197 449.567 86.0547L450.697 87.7053C453.374 85.8736 455.365 83.5331 456.644 80.6904L454.82 79.8696ZM449.567 86.0547C447.233 87.6516 444.308 88.48 440.732 88.48V90.48C444.623 90.48 447.964 89.5751 450.697 87.7053L449.567 86.0547ZM440.732 88.48C439.255 88.48 437.849 88.3272 436.513 88.0247L436.071 89.9753C437.562 90.3128 439.116 90.48 440.732 90.48V88.48ZM436.534 88.0299C435.222 87.7019 434.204 87.2731 433.447 86.7679L432.337 88.4321C433.34 89.1003 434.588 89.6048 436.049 89.9701L436.534 88.0299ZM433.741 88.1281L436.701 83.3681L435.003 82.3119L432.043 87.0719L433.741 88.1281ZM435.29 83.6669C436.836 84.7188 438.798 85.2 441.092 85.2V83.2C439.066 83.2 437.534 82.7745 436.414 82.0131L435.29 83.6669ZM441.092 85.2C443.9 85.2 446.248 84.4064 448.02 82.7256L446.644 81.2744C445.323 82.5269 443.51 83.2 441.092 83.2V85.2ZM448.014 82.7315C449.751 81.1118 450.883 79.0305 451.429 76.5334L449.475 76.1066C449.007 78.2495 448.059 79.9549 446.65 81.2685L448.014 82.7315ZM449.77 75.5889C448.388 76.8787 446.554 77.56 444.172 77.56V79.56C446.963 79.56 449.316 78.748 451.134 77.0511L449.77 75.5889ZM444.172 77.56C442.622 77.56 441.234 77.2656 439.991 76.692L439.153 78.508C440.684 79.2144 442.362 79.56 444.172 79.56V77.56ZM439.991 76.692C438.759 76.1235 437.795 75.3177 437.075 74.2727L435.428 75.4073C436.362 76.7623 437.611 77.7965 439.153 78.508L439.991 76.692ZM437.081 74.2811C436.38 73.2413 436.012 71.9888 436.012 70.48H434.012C434.012 72.3312 434.47 73.9853 435.423 75.3989L437.081 74.2811ZM436.012 70.48C436.012 68.6467 436.449 67.093 437.293 65.7808L435.611 64.6992C434.534 66.3737 434.012 68.3133 434.012 70.48H436.012ZM437.291 65.7845C438.171 64.4276 439.372 63.3895 440.916 62.6655L440.067 60.8545C438.199 61.7305 436.706 63.0124 435.613 64.6955L437.291 65.7845ZM440.928 62.66C442.482 61.9069 444.251 61.52 446.252 61.52V59.52C443.987 59.52 441.915 59.9597 440.056 60.86L440.928 62.66ZM445.852 74.72C447.56 74.72 449.041 74.2509 450.195 73.2286L448.869 71.7314C448.156 72.3625 447.184 72.72 445.852 72.72V74.72ZM450.195 73.2286C451.349 72.2064 451.932 70.8775 451.932 69.32H449.932C449.932 70.3224 449.581 71.1002 448.869 71.7314L450.195 73.2286ZM451.932 69.32C451.932 67.9189 451.4 66.7153 450.362 65.7779L449.022 67.2621C449.637 67.818 449.932 68.4811 449.932 69.32H451.932ZM450.375 65.7897C449.32 64.8027 447.933 64.36 446.332 64.36V66.36C447.557 66.36 448.41 66.6906 449.009 67.2503L450.375 65.7897ZM446.332 64.36C444.689 64.36 443.26 64.8378 442.138 65.861L443.486 67.339C444.177 66.7088 445.095 66.36 446.332 66.36V64.36ZM442.138 65.861C440.995 66.9029 440.452 68.2926 440.452 69.92H442.452C442.452 68.7741 442.815 67.9505 443.486 67.339L442.138 65.861ZM440.452 69.92C440.452 71.3481 440.952 72.5705 441.997 73.4757L443.307 71.9643C442.751 71.4829 442.452 70.8386 442.452 69.92H440.452ZM442.012 73.4882C443.037 74.3425 444.352 74.72 445.852 74.72V72.72C444.686 72.72 443.867 72.4308 443.292 71.9518L442.012 73.4882ZM478.406 61L479.387 61.1961L479.626 60H478.406V61ZM472.806 89V90H473.626L473.787 89.1961L472.806 89ZM466.326 89L465.346 88.8039L465.106 90H466.326V89ZM470.886 66.2L471.867 66.3961L472.106 65.2H470.886V66.2ZM465.286 66.2L464.306 66.0039L464.066 67.2H465.286V66.2ZM466.326 61V60H465.506L465.346 60.8039L466.326 61ZM477.426 60.8039L471.826 88.8039L473.787 89.1961L479.387 61.1961L477.426 60.8039ZM472.806 88H466.326V90H472.806V88ZM467.307 89.1961L471.867 66.3961L469.906 66.0039L465.346 88.8039L467.307 89.1961ZM470.886 65.2H465.286V67.2H470.886V65.2ZM466.267 66.3961L467.307 61.1961L465.346 60.8039L464.306 66.0039L466.267 66.3961ZM466.326 62H478.406V60H466.326V62ZM492.71 83.72L492.098 82.9293L489.785 84.72H492.71V83.72ZM504.47 83.72L505.451 83.9133L505.686 82.72H504.47V83.72ZM503.43 89V90H504.253L504.411 89.1933L503.43 89ZM482.23 89L481.25 88.8039L481.011 90H482.23V89ZM483.07 84.8L482.453 84.0129L482.162 84.2411L482.09 84.6039L483.07 84.8ZM495.83 74.8L496.447 75.5871L496.454 75.5821L496.46 75.5769L495.83 74.8ZM499.03 71.64L498.218 71.0564L498.212 71.0649L498.206 71.0735L499.03 71.64ZM498.87 66.72L498.242 67.4979L498.249 67.5037L498.256 67.5094L498.87 66.72ZM492.59 66.64L492.152 65.741L492.152 65.741L492.59 66.64ZM489.87 68.8L489.283 69.6097L490.042 70.1597L490.64 69.438L489.87 68.8ZM485.51 65.64L484.702 65.051L484.112 65.8613L484.923 66.4497L485.51 65.64ZM490.23 61.92L490.643 62.8308L490.653 62.8262L490.23 61.92ZM501.91 61.48L501.51 62.3966L501.516 62.3991L501.91 61.48ZM505.35 64.16L504.53 64.7322L504.535 64.7385L504.539 64.7448L505.35 64.16ZM505.15 72.92L505.996 73.454L505.996 73.454L505.15 72.92ZM500.15 77.96L500.762 78.7507L500.763 78.7503L500.15 77.96ZM492.71 84.72H504.47V82.72H492.71V84.72ZM503.489 83.5267L502.449 88.8067L504.411 89.1933L505.451 83.9133L503.489 83.5267ZM503.43 88H482.23V90H503.43V88ZM483.211 89.1961L484.051 84.9961L482.09 84.6039L481.25 88.8039L483.211 89.1961ZM483.687 85.5871L496.447 75.5871L495.213 74.0129L482.453 84.0129L483.687 85.5871ZM496.46 75.5769C498.026 74.308 499.184 73.1816 499.854 72.2065L498.206 71.0735C497.703 71.805 496.728 72.7854 495.201 74.0231L496.46 75.5769ZM499.842 72.2236C500.562 71.2226 500.95 70.1287 500.95 68.96H498.95C498.95 69.658 498.725 70.3507 498.218 71.0564L499.842 72.2236ZM500.95 68.96C500.95 67.7265 500.454 66.6852 499.484 65.9306L498.256 67.5094C498.726 67.8748 498.95 68.3269 498.95 68.96H500.95ZM499.499 65.9421C498.558 65.1823 497.283 64.88 495.83 64.88V66.88C497.044 66.88 497.796 67.1377 498.242 67.4979L499.499 65.9421ZM495.83 64.88C494.553 64.88 493.324 65.1701 492.152 65.741L493.028 67.539C493.936 67.0965 494.867 66.88 495.83 66.88V64.88ZM492.152 65.741C490.978 66.313 489.96 67.1244 489.1 68.162L490.64 69.438C491.327 68.609 492.122 67.9803 493.028 67.539L492.152 65.741ZM490.457 67.9903L486.097 64.8303L484.923 66.4497L489.283 69.6097L490.457 67.9903ZM486.318 66.229C487.351 64.8124 488.78 63.6754 490.643 62.8308L489.817 61.0092C487.681 61.9779 485.963 63.321 484.702 65.051L486.318 66.229ZM490.653 62.8262C492.511 61.9592 494.552 61.52 496.79 61.52V59.52C494.282 59.52 491.95 60.0141 489.807 61.0138L490.653 62.8262ZM496.79 61.52C498.628 61.52 500.194 61.8221 501.51 62.3965L502.31 60.5635C500.693 59.8579 498.846 59.52 496.79 59.52V61.52ZM501.516 62.3991C502.866 62.9777 503.853 63.7621 504.53 64.7322L506.17 63.5878C505.247 62.2645 503.941 61.2623 502.304 60.5609L501.516 62.3991ZM504.539 64.7448C505.241 65.7178 505.59 66.8057 505.59 68.04H507.59C507.59 66.3943 507.113 64.8955 506.161 63.5752L504.539 64.7448ZM505.59 68.04C505.59 69.577 505.168 71.0196 504.305 72.386L505.996 73.454C507.053 71.7804 507.59 69.9696 507.59 68.04H505.59ZM504.305 72.386C503.435 73.7636 501.872 75.3598 499.538 77.1697L500.763 78.7503C503.175 76.8802 504.946 75.1164 505.996 73.454L504.305 72.386ZM499.538 77.1693L492.098 82.9293L493.322 84.5107L500.762 78.7507L499.538 77.1693Z" fill="#55EEEE"/>
</g>
<defs>
<filter id="filter0_d_0_1" x="164.376" y="33.32" width="372.214" height="90.16" filterUnits="userSpaceOnUse" color-interpolation-filters="sRGB">
<feFlood flood-opacity="0" result="BackgroundImageFix"/>
<feColorMatrix in="SourceAlpha" type="matrix" values="0 0 0 0 0 0 0 0 0 0 0 0 0 0 0 0 0 0 127 0" result="hardAlpha"/>
<feOffset dy="4"/>
<feGaussianBlur stdDeviation="15"/>
<feComposite in2="hardAlpha" operator="out"/>
<feColorMatrix type="matrix" values="0 0 0 0 0.333333 0 0 0 0 0.933333 0 0 0 0 0.933333 0 0 0 1 0"/>
<feBlend mode="normal" in2="BackgroundImageFix" result="effect1_dropShadow_0_1"/>
<feBlend mode="normal" in="SourceGraphic" in2="effect1_dropShadow_0_1" result="shape"/>
</filter>
<linearGradient id="paint0_linear_0_1" x1="0" y1="0" x2="700" y2="150" gradientUnits="userSpaceOnUse">
<stop stop-color="#0B2D45"/>
<stop offset="1" stop-color="#015999"/>
</linearGradient>
</defs>
</svg>
